GIL04_slow3_ik
nRows=3
nColumns=375

# SIMM Motion File Header:
name GIL04_slow3_ik
datacolumns 375
datarows 3
otherdata 1
range 0.13333000 0.15000000
endheader
time	pelvis_tx	pelvis_ty	pelvis_tz	pelvis_tilt	pelvis_list	pelvis_rotation	hip_flexion_r	hip_adduction_r	hip_rotation_r	knee_angle_r	ankle_angle_r	hip_flexion_l	hip_adduction_l	hip_rotation_l	knee_angle_l	ankle_angle_l	lumbar_extension	lumbar_bending	lumbar_rotation	subtalar_angle_r	mtp_angle_r	subtalar_angle_l	mtp_angle_l	asis_r_px	asis_r_py	asis_r_pz	asis_l_px	asis_l_py	asis_l_pz	midasis_px	midasis_py	midasis_pz	psis_r_px	psis_r_py	psis_r_pz	psis_l_px	psis_l_py	psis_l_pz	hip_r_px	hip_r_py	hip_r_pz	hip_l_px	hip_l_py	hip_l_pz	midhip_px	midhip_py	midhip_pz	epicondLat_r_px	epicondLat_r_py	epicondLat_r_pz	epicondMed_r_px	epicondMed_r_py	epicondMed_r_pz	thighwand_r_px	thighwand_r_py	thighwand_r_pz	upperleg1_r_px	upperleg1_r_py	upperleg1_r_pz	upperleg2_r_px	upperleg2_r_py	upperleg2_r_pz	malleolusLat_r_px	malleolusLat_r_py	malleolusLat_r_pz	malleolusMedv_r_px	malleolusMedv_r_py	malleolusMedv_r_pz	shankwand_r_px	shankwand_r_py	shankwand_r_pz	lowerleg1_r_px	lowerleg1_r_py	lowerleg1_r_pz	knee_r_px	knee_r_py	knee_r_pz	ankle_r_px	ankle_r_py	ankle_r_pz	toe_r_px	toe_r_py	toe_r_pz	epicondLat_l_px	epicondLat_l_py	epicondLat_l_pz	epicondMed_l_px	epicondMed_l_py	epicondMed_l_pz	thighwand_l_px	thighwand_l_py	thighwand_l_pz	upperleg1_l_px	upperleg1_l_py	upperleg1_l_pz	upperleg2_l_px	upperleg2_l_py	upperleg2_l_pz	malleolusLat_l_px	malleolusLat_l_py	malleolusLat_l_pz	malleolusMedv_l_px	malleolusMedv_l_py	malleolusMedv_l_pz	shankwand_l_px	shankwand_l_py	shankwand_l_pz	lowerleg1_l_px	lowerleg1_l_py	lowerleg1_l_pz	knee_l_px	knee_l_py	knee_l_pz	ankle_l_px	ankle_l_py	ankle_l_pz	toe_l_px	toe_l_py	toe_l_pz	subclavicle_r_px	subclavicle_r_py	subclavicle_r_pz	subclavicle_l_px	subclavicle_l_py	subclavicle_l_pz	neck_px	neck_py	neck_pz	sternalnotch_px	sternalnotch_py	sternalnotch_pz	xyphoidprocess_px	xyphoidprocess_py	xyphoidprocess_pz	midhip_tx	midhip_ty	midhip_tz	hip_r_tx	hip_r_ty	hip_r_tz	hip_l_tx	hip_l_ty	hip_l_tz	knee_r_tx	knee_r_ty	knee_r_tz	knee_l_tx	knee_l_ty	knee_l_tz	ankle_r_tx	ankle_r_ty	ankle_r_tz	ankle_l_tx	ankle_l_ty	ankle_l_tz	midasis_tx	midasis_ty	midasis_tz	asis_r_tx	asis_r_ty	asis_r_tz	asis_l_tx	asis_l_ty	asis_l_tz	psis_r_tx	psis_r_ty	psis_r_tz	psis_l_tx	psis_l_ty	psis_l_tz	epicondLat_r_tx	epicondLat_r_ty	epicondLat_r_tz	epicondLat_l_tx	epicondLat_l_ty	epicondLat_l_tz	epicondMed_r_tx	epicondMed_r_ty	epicondMed_r_tz	epicondMed_l_tx	epicondMed_l_ty	epicondMed_l_tz	malleolusLat_r_tx	malleolusLat_r_ty	malleolusLat_r_tz	malleolusLat_l_tx	malleolusLat_l_ty	malleolusLat_l_tz	malleolusMedv_r_tx	malleolusMedv_r_ty	malleolusMedv_r_tz	malleolusMedv_l_tx	malleolusMedv_l_ty	malleolusMedv_l_tz	neck_tx	neck_ty	neck_tz	subclavicle_r_tx	subclavicle_r_ty	subclavicle_r_tz	subclavicle_l_tx	subclavicle_l_ty	subclavicle_l_tz	sternalnotch_tx	sternalnotch_ty	sternalnotch_tz	xyphoidprocess_tx	xyphoidprocess_ty	xyphoidprocess_tz	thighwand_r_tx	thighwand_r_ty	thighwand_r_tz	thighwand_l_tx	thighwand_l_ty	thighwand_l_tz	upperleg1_r_tx	upperleg1_r_ty	upperleg1_r_tz	upperleg1_l_tx	upperleg1_l_ty	upperleg1_l_tz	upperleg2_r_tx	upperleg2_r_ty	upperleg2_r_tz	upperleg2_l_tx	upperleg2_l_ty	upperleg2_l_tz	shankwand_r_tx	shankwand_r_ty	shankwand_r_tz	shankwand_l_tx	shankwand_l_ty	shankwand_l_tz	lowerleg1_r_tx	lowerleg1_r_ty	lowerleg1_r_tz	lowerleg1_l_tx	lowerleg1_l_ty	lowerleg1_l_tz	toe_r_tx	toe_r_ty	toe_r_tz	toe_l_tx	toe_l_ty	toe_l_tz	ground_force_vx	ground_force_vy	ground_force_vz	ground_force_px	ground_force_py	ground_force_pz	ground_force_vx	ground_force_vy	ground_force_vz	ground_force_px	ground_force_py	ground_force_pz	ground_torque_x	ground_torque_y	ground_torque_z	ground_torque_x	ground_torque_y	ground_torque_z	ground_marker_px	ground_marker_py	ground_marker_pz	ground_marker_px	ground_marker_py	ground_marker_pz	ground_marker_px	ground_marker_py	ground_marker_pz	ground_marker_px	ground_marker_py	ground_marker_pz	ground_marker_px	ground_marker_py	ground_marker_pz	ground_marker_px	ground_marker_py	ground_marker_pz	ground_marker_px	ground_marker_py	ground_marker_pz	ground_marker_px	ground_marker_py	ground_marker_pz	ground_marker_px	ground_marker_py	ground_marker_pz	ground_marker_px	ground_marker_py	ground_marker_pz	ground_marker_px	ground_marker_py	ground_marker_pz	ground_marker_px	ground_marker_py	ground_marker_pz	ground_marker_px	ground_marker_py	ground_marker_pz	ground_marker_px	ground_marker_py	ground_marker_pz	ground_marker_px	ground_marker_py	ground_marker_pz	ground_marker_px	ground_marker_py	ground_marker_pz	ground_marker_px	ground_marker_py	ground_marker_pz	ground_marker_px	ground_marker_py	ground_marker_pz	ground_marker_px	ground_marker_py	ground_marker_pz	ground_marker_px	ground_marker_py	ground_marker_pz	ground_marker_px	ground_marker_py	ground_marker_pz	ground_marker_px	ground_marker_py	ground_marker_pz	ground_marker_px	ground_marker_py	ground_marker_pz	ground_marker_px	ground_marker_py	ground_marker_pz	ground_marker_px	ground_marker_py	ground_marker_pz	ground_marker_px	ground_marker_py	ground_marker_pz	ground_marker_px	ground_marker_py	ground_marker_pz	ground_marker_px	ground_marker_py	ground_marker_pz	ground_marker_px	ground_marker_py	ground_marker_pz	ground_marker_px	ground_marker_py	ground_marker_pz	ground_marker_px	ground_marker_py	ground_marker_pz	ground_marker_px	ground_marker_py	ground_marker_pz	ground_marker_px	ground_marker_py	ground_marker_pz	ground_marker_px	ground_marker_py	ground_marker_pz	ground_marker_px	ground_marker_py	ground_marker_pz	ground_marker_px	ground_marker_py	ground_marker_pz	ground_marker_px	ground_marker_py	ground_marker_pz
      0.13333000	      0.11748968	      0.72519729	     -0.21863587	     -2.45075333	     -3.92067508	     -1.49279976	     23.90303032	      9.76330874	      3.00836524	    -19.67799808	     -1.67874354	    -11.96058700	     -3.05063035	    -10.62207601	    -32.72205176	    -18.86381606	     -2.90224295	      5.13764220	      2.51487431	      0.00000000	      0.00000000	      0.00000000	      0.00000000	      0.21981112	      0.71492310	     -0.13542695	      0.23003324	      0.69272422	     -0.32065370	      0.12769504	      0.72477872	     -0.21837031	      0.09252116	      0.77972737	     -0.22493459	      0.09389142	      0.76843663	     -0.27867900	      0.06248662	      0.68345670	     -0.15590222	      0.06530260	      0.67499787	     -0.27745466	      0.06389461	      0.67922729	     -0.21667844	      0.22468867	      0.37885241	     -0.13244793	      0.21532181	      0.38464756	     -0.23235447	      0.20263243	      0.47576486	     -0.05373781	      0.21809339	      0.54415851	     -0.12061236	      0.24702162	      0.46600721	     -0.13724202	      0.21902126	      0.04597995	     -0.14836484	      0.22040939	      0.05582344	     -0.20765067	      0.20177150	      0.14953805	     -0.07504249	      0.21102476	      0.20531894	     -0.13544870	      0.18119377	      0.37928516	     -0.18772057	      0.19105985	      0.06067644	     -0.21090854	      0.32069036	      0.01968033	     -0.18206716	      0.01154793	      0.33783403	     -0.35081029	      0.02445668	      0.32442423	     -0.24835686	      0.17199739	      0.38682794	     -0.35229201	      0.13708298	      0.45863777	     -0.28610664	      0.09542458	      0.38162578	     -0.27996792	     -0.25685422	      0.12276036	     -0.32535575	     -0.24671003	      0.11901084	     -0.26260321	     -0.12322100	      0.11597261	     -0.34294449	     -0.11530942	      0.19629095	     -0.31590418	     -0.01524861	      0.35537768	     -0.27484361	     -0.24728128	      0.13729525	     -0.24750437	     -0.24467434	      0.01528010	     -0.30073853	      0.08862647	      1.11987715	     -0.15448252	      0.09730503	      1.13482289	     -0.26858218	      0.01227206	      1.12478486	     -0.21716143	      0.09499317	      1.11541791	     -0.21554584	      0.18734294	      1.00473217	     -0.22234815	      0.07229900	      0.67253200	     -0.21639200	      0.06427300	      0.68409300	     -0.15333800	      0.06442400	      0.67548500	     -0.27887200	      0.18007400	      0.38716000	     -0.19149400	     -0.01222900	      0.36826300	     -0.27153700	      0.19272300	      0.05590000	     -0.19024500	     -0.25038500	      0.14633900	     -0.26577400	      0.13048200	      0.74270000	     -0.22033900	      0.13036900	      0.74916900	     -0.12600100	      0.13059600	      0.73623200	     -0.31467700	     -0.01468400	      0.78289500	     -0.19934400	     -0.01736600	      0.77682600	     -0.25363600	      0.18574400	      0.38294600	     -0.14149000	     -0.02075500	      0.36921400	     -0.32079500	      0.17627400	      0.38237700	     -0.24140000	      0.00685800	      0.35966900	     -0.21345800	      0.19162100	      0.05598500	     -0.15676300	     -0.25764200	      0.15326900	     -0.29878300	      0.18972100	      0.06586700	     -0.21618900	     -0.24930800	      0.15795100	     -0.23821200	      0.02075200	      1.12776800	     -0.21625100	      0.09957900	      1.08124100	     -0.15091000	      0.10066700	      1.08530800	     -0.27991400	      0.09454800	      1.07183800	     -0.21839800	      0.11591800	      0.92946800	     -0.22195300	      0.16351600	      0.45811600	     -0.05433800	      0.14071600	      0.44001800	     -0.33087200	      0.17133100	      0.53120100	     -0.11640400	      0.09895100	      0.50574300	     -0.26154500	      0.20585200	      0.45805400	     -0.14100000	      0.06803400	      0.42433100	     -0.25084600	      0.18466300	      0.15704200	     -0.08195000	     -0.12466100	      0.15440800	     -0.31805200	      0.18526100	      0.21328800	     -0.14122700	     -0.12059200	      0.23406500	     -0.29336700	      0.28976100	      0.03903000	     -0.19722600	     -0.22927900	      0.05675400	     -0.25695600	    -43.81221044	    298.48395127	     -8.47967514	      0.20037642	      0.00000000	     -0.19095866	      0.00000000	      0.00000000	      0.00000000	      0.56749500	      0.00000000	     -0.27899225	      0.00000000	     -0.58933368	      0.00000000	      0.00000000	      0.00000000	      0.00000000	      0.07229917	      0.67253166	     -0.21639159	      0.06427257	      0.68409288	     -0.15333776	      0.06442393	      0.67548513	     -0.27887180	      0.18007365	      0.38715985	     -0.19149372	     -0.01222948	      0.36826307	     -0.27153665	      0.19272323	      0.05590043	     -0.19024460	     -0.25038546	      0.14633912	     -0.26577428	      0.13048236	      0.74270022	     -0.22033882	      0.13036862	      0.74916887	     -0.12600084	      0.13059610	      0.73623157	     -0.31467682	     -0.01468421	      0.78289545	     -0.19934367	     -0.01736604	      0.77682585	     -0.25363556	      0.18574448	      0.38294598	     -0.14149037	     -0.02075482	      0.36921412	     -0.32079530	      0.17627360	      0.38237691	     -0.24140029	      0.00685822	      0.35966912	     -0.21345809	      0.19162053	      0.05598457	     -0.15676285	     -0.25764191	      0.15326923	     -0.29878286	      0.18972115	      0.06586713	     -0.21618910	     -0.24930777	      0.15795146	     -0.23821230	      0.02075224	      1.12776756	     -0.21625057	      0.09957910	      1.08124065	     -0.15090975	      0.10066714	      1.08530796	     -0.27991357	      0.09454843	      1.07183826	     -0.21839768	      0.11591773	      0.92946827	     -0.22195280	      0.16351570	      0.45811638	     -0.05433784	      0.14071642	      0.44001758	     -0.33087215	      0.17133129	      0.53120130	     -0.11640443	      0.09895124	      0.50574303	     -0.26154506	      0.20585231	      0.45805416	     -0.14099990	      0.06803444	      0.42433056	     -0.25084573	      0.18466321	      0.15704188	     -0.08194978	     -0.12466078	      0.15440758	     -0.31805176	      0.18526112	      0.21328777	     -0.14122705	     -0.12059245	      0.23406473	     -0.29336664	      0.28976136	      0.03903025	     -0.19722614	     -0.22927855	      0.05675389	     -0.25695574
      0.14167000	      0.12551070	      0.72645537	     -0.21813412	     -2.43813269	     -3.83196807	     -1.45493222	     23.39634969	      9.65388157	      2.34211924	    -20.07402213	     -0.80885581	    -10.51077310	     -3.51532806	    -10.92123186	    -35.46420253	    -19.05666426	     -2.93254909	      4.99104428	      2.42285627	      0.00000000	      0.00000000	      0.00000000	      0.00000000	      0.22788326	      0.71606816	     -0.13500214	      0.23799945	      0.69416281	     -0.32026965	      0.13571630	      0.72603817	     -0.21787527	      0.10052891	      0.78099090	     -0.22433215	      0.10186928	      0.76978506	     -0.27809508	      0.07055216	      0.68460634	     -0.15543371	      0.07329755	      0.67633945	     -0.27700096	      0.07192486	      0.68047290	     -0.21621734	      0.22949852	      0.37833453	     -0.13141260	      0.22133953	      0.38463374	     -0.23139455	      0.20748254	      0.47513230	     -0.05255023	      0.22437798	      0.54364697	     -0.11895219	      0.25273312	      0.46528559	     -0.13558030	      0.21857359	      0.04538424	     -0.14865422	      0.22077864	      0.05541240	     -0.20788432	      0.20223949	      0.14895590	     -0.07514156	      0.21308372	      0.20478775	     -0.13523521	      0.18672546	      0.37941004	     -0.18718497	      0.19155149	      0.06076500	     -0.21144578	      0.32066420	      0.01942106	     -0.18083274	      0.02780379	      0.33865693	     -0.35349217	      0.04162945	      0.32455680	     -0.25125127	      0.18693173	      0.39177495	     -0.35533763	      0.15055872	      0.46199534	     -0.28823866	      0.11092632	      0.38387939	     -0.28265979	     -0.24572211	      0.12709926	     -0.32677751	     -0.23522522	      0.12293104	     -0.26410946	     -0.11239253	      0.11748167	     -0.34532477	     -0.10255763	      0.19752355	     -0.31809646	      0.00120400	      0.35427904	     -0.27725577	     -0.23529582	      0.14117523	     -0.24895142	     -0.23608353	      0.01924280	     -0.30243255	      0.09673003	      1.12119003	     -0.15417426	      0.10550768	      1.13600555	     -0.26828331	      0.02042856	      1.12606364	     -0.21692026	      0.10314401	      1.11666032	     -0.21522744	      0.19544806	      1.00592452	     -0.22183270	      0.08052400	      0.67368100	     -0.21592700	      0.07251700	      0.68511200	     -0.15286500	      0.07263700	      0.67671800	     -0.27841400	      0.18583900	      0.38737300	     -0.19098700	      0.00391300	      0.36712300	     -0.27392300	      0.19306700	      0.05579600	     -0.19018100	     -0.23865200	      0.15057900	     -0.26791300	      0.13868100	      0.74386300	     -0.21978500	      0.13859100	      0.75017200	     -0.12541800	      0.13877100	      0.73755400	     -0.31415200	     -0.00643900	      0.78404600	     -0.19856400	     -0.00930600	      0.77791500	     -0.25291900	      0.19088000	      0.38288300	     -0.14094000	     -0.00491900	      0.36837000	     -0.32312100	      0.18217600	      0.38264800	     -0.24089400	      0.02408400	      0.35717700	     -0.21680700	      0.19173500	      0.05584900	     -0.15670800	     -0.24567500	      0.15752900	     -0.30096800	      0.18989300	      0.06578500	     -0.21624300	     -0.23748000	      0.16313600	     -0.24056000	      0.02884900	      1.12900100	     -0.21596200	      0.10763600	      1.08265400	     -0.15040500	      0.10871900	      1.08656000	     -0.27966400	      0.10273600	      1.07317000	     -0.21810100	      0.12408400	      0.93080400	     -0.22137400	      0.16831400	      0.45797600	     -0.05375100	      0.15469100	      0.44250500	     -0.33344900	      0.17778900	      0.53075300	     -0.11511000	      0.11189500	      0.50627700	     -0.26361400	      0.21150200	      0.45735400	     -0.13964400	      0.08325800	      0.42392200	     -0.25374100	      0.18591400	      0.15692900	     -0.08177900	     -0.11272900	      0.15562600	     -0.31992000	      0.18745400	      0.21305800	     -0.14113200	     -0.10674400	      0.23509800	     -0.29545900	      0.28990700	      0.03884600	     -0.19713100	     -0.21972600	      0.06038000	     -0.25861100	    -40.98049901	    302.61783922	     -8.08747610	      0.20168286	      0.00000000	     -0.19098398	      0.00000000	      0.00000000	      0.00000000	      0.56831390	      0.00000000	     -0.27887234	      0.00000000	     -0.51606268	      0.00000000	      0.00000000	      0.00000000	      0.00000000	      0.08052421	      0.67368090	     -0.21592680	      0.07251728	      0.68511170	     -0.15286502	      0.07263681	      0.67671782	     -0.27841356	      0.18583925	      0.38737267	     -0.19098721	      0.00391335	      0.36712348	     -0.27392271	      0.19306703	      0.05579644	     -0.19018099	     -0.23865199	      0.15057893	     -0.26791286	      0.13868132	      0.74386322	     -0.21978495	      0.13859147	      0.75017238	     -0.12541816	      0.13877116	      0.73755407	     -0.31415173	     -0.00643907	      0.78404570	     -0.19856435	     -0.00930628	      0.77791512	     -0.25291935	      0.19088049	      0.38288346	     -0.14094040	     -0.00491922	      0.36837047	     -0.32312056	      0.18217561	      0.38264787	     -0.24089369	      0.02408363	      0.35717684	     -0.21680678	      0.19173501	      0.05584880	     -0.15670753	     -0.24567541	      0.15752894	     -0.30096769	      0.18989316	      0.06578486	     -0.21624321	     -0.23747984	      0.16313607	     -0.24055991	      0.02884879	      1.12900066	     -0.21596238	      0.10763636	      1.08265376	     -0.15040505	      0.10871916	      1.08655953	     -0.27966419	      0.10273569	      1.07316983	     -0.21810076	      0.12408416	      0.93080372	     -0.22137366	      0.16831447	      0.45797566	     -0.05375148	      0.15469065	      0.44250470	     -0.33344948	      0.17778854	      0.53075325	     -0.11510964	      0.11189499	      0.50627685	     -0.26361442	      0.21150155	      0.45735428	     -0.13964397	      0.08325811	      0.42392209	     -0.25374144	      0.18591385	      0.15692924	     -0.08177896	     -0.11272883	      0.15562564	     -0.31992027	      0.18745434	      0.21305829	     -0.14113231	     -0.10674361	      0.23509836	     -0.29545888	      0.28990677	      0.03884558	     -0.19713099	     -0.21972586	      0.06037975	     -0.25861120
      0.15000000	      0.13333260	      0.72770222	     -0.21772307	     -2.44744380	     -3.71759444	     -1.42966142	     22.86676338	      9.51310774	      1.68580267	    -20.35274001	      0.00060993	     -8.98065539	     -3.95092143	    -11.33014217	    -38.18623023	    -18.79376366	     -2.96769167	      4.82015710	      2.48001383	      0.00000000	      0.00000000	      0.00000000	      0.00000000	      0.23573263	      0.71712810	     -0.13464850	      0.24577895	      0.69559384	     -0.31996331	      0.14353821	      0.72728256	     -0.21746869	      0.10835908	      0.78225490	     -0.22380244	      0.10967825	      0.77115706	     -0.27758829	      0.07838826	      0.68573757	     -0.15508754	      0.08108898	      0.67771490	     -0.27667216	      0.07973862	      0.68172623	     -0.21587985	      0.23381875	      0.37771713	     -0.13042673	      0.22690836	      0.38449107	     -0.23047172	      0.21188879	      0.47443375	     -0.05144093	      0.23028539	      0.54302458	     -0.11736360	      0.25801164	      0.46443416	     -0.13397127	      0.21805567	      0.04484155	     -0.14904440	      0.22109221	      0.05504354	     -0.20820799	      0.20247045	      0.14839202	     -0.07533957	      0.21485657	      0.20426227	     -0.13509858	      0.19177464	      0.37945125	     -0.18669825	      0.19199323	      0.06085725	     -0.21208240	      0.32056486	      0.01919852	     -0.17967160	      0.04404567	      0.33973558	     -0.35634550	      0.05902635	      0.32496505	     -0.25436229	      0.20167926	      0.39711321	     -0.35881222	      0.16395913	      0.46564357	     -0.29071705	      0.12647122	      0.38644100	     -0.28566111	     -0.23408295	      0.13138159	     -0.32769692	     -0.22309215	      0.12680531	     -0.26514211	     -0.10115209	      0.11913838	     -0.34751525	     -0.08945255	      0.19887968	     -0.32014276	      0.01782434	      0.35338351	     -0.27980718	     -0.22265423	      0.14499936	     -0.24993007	     -0.22587324	      0.02334890	     -0.30395943	      0.10496027	      1.12248458	     -0.15396227	      0.11357021	      1.13719552	     -0.26809763	      0.02856388	      1.12737110	     -0.21659165	      0.11127372	      1.11789743	     -0.21502164	      0.20347121	      1.00707599	     -0.22167862	      0.08846600	      0.67482400	     -0.21550700	      0.08057900	      0.68608700	     -0.15245500	      0.08069200	      0.67794600	     -0.27802000	      0.19118400	      0.38750000	     -0.19045500	      0.02029900	      0.36620100	     -0.27630300	      0.19339600	      0.05570600	     -0.19011500	     -0.22630500	      0.15480900	     -0.26989900	      0.14673400	      0.74497900	     -0.21926000	      0.14665000	      0.75110000	     -0.12485600	      0.14681900	      0.73885800	     -0.31366400	      0.00157700	      0.78522300	     -0.19782900	     -0.00134400	      0.77901200	     -0.25224100	      0.19557600	      0.38275300	     -0.14037100	      0.01104600	      0.36772300	     -0.32541500	      0.18823800	      0.38293000	     -0.24042400	      0.04155400	      0.35528900	     -0.21986700	      0.19181000	      0.05573000	     -0.15665300	     -0.23307300	      0.16170100	     -0.30301900	      0.19000100	      0.06573800	     -0.21628700	     -0.22500700	      0.16817200	     -0.24274500	      0.03688800	      1.13023600	     -0.21566400	      0.11581600	      1.08397500	     -0.15029500	      0.11676200	      1.08778300	     -0.27932500	      0.11080900	      1.07445200	     -0.21782900	      0.13230000	      0.93208300	     -0.22105700	      0.17272200	      0.45777800	     -0.05318300	      0.16853500	      0.44517100	     -0.33627100	      0.18340100	      0.53057600	     -0.11395600	      0.12512500	      0.50701600	     -0.26597700	      0.21689800	      0.45679000	     -0.13846400	      0.09866400	      0.42387700	     -0.25668300	      0.18694600	      0.15680400	     -0.08160300	     -0.10016500	      0.15689900	     -0.32152500	      0.18926400	      0.21283000	     -0.14104600	     -0.09240900	      0.23623300	     -0.29726200	      0.29002800	      0.03869500	     -0.19701500	     -0.20883000	      0.06412400	     -0.26058000	    -38.19539085	    305.80446551	     -7.81906071	      0.20360326	      0.00000000	     -0.19094995	      0.00000000	      0.00000000	      0.00000000	      0.56919238	      0.00000000	     -0.27874597	      0.00000000	     -0.42327789	      0.00000000	      0.00000000	      0.00000000	      0.00000000	      0.08846593	      0.67482382	     -0.21550721	      0.08057935	      0.68608749	     -0.15245457	      0.08069172	      0.67794627	     -0.27801979	      0.19118434	      0.38749990	     -0.19045489	      0.02029923	      0.36620069	     -0.27630258	      0.19339620	      0.05570603	     -0.19011520	     -0.22630477	      0.15480867	     -0.26989871	      0.14673424	      0.74497914	     -0.21926026	      0.14664975	      0.75109994	     -0.12485623	      0.14681873	      0.73885840	     -0.31366429	      0.00157731	      0.78522336	     -0.19782948	     -0.00134369	      0.77901167	     -0.25224131	      0.19557634	      0.38275278	     -0.14037070	      0.01104617	      0.36772269	     -0.32541534	      0.18823822	      0.38293037	     -0.24042425	      0.04155416	      0.35528892	     -0.21986733	      0.19181035	      0.05572971	     -0.15665278	     -0.23307292	      0.16170086	     -0.30301881	      0.19000083	      0.06573800	     -0.21628712	     -0.22500718	      0.16817215	     -0.24274451	      0.03688848	      1.13023639	     -0.21566376	      0.11581647	      1.08397532	     -0.15029527	      0.11676162	      1.08778334	     -0.27932519	      0.11080861	      1.07445216	     -0.21782888	      0.13229966	      0.93208337	     -0.22105668	      0.17272171	      0.45777825	     -0.05318280	      0.16853517	      0.44517133	     -0.33627090	      0.18340100	      0.53057629	     -0.11395614	      0.12512545	      0.50701618	     -0.26597703	      0.21689819	      0.45678955	     -0.13846435	      0.09866428	      0.42387718	     -0.25668284	      0.18694621	      0.15680446	     -0.08160330	     -0.10016499	      0.15689911	     -0.32152542	      0.18926415	      0.21282992	     -0.14104623	     -0.09240859	      0.23623292	     -0.29726222	      0.29002774	      0.03869468	     -0.19701521	     -0.20882978	      0.06412411	     -0.26057988
